<?xml version="1.0" encoding="UTF-8"?>
<svg xmlns="http://www.w3.org/2000/svg" viewBox="0 0 652.45 972.94">
    <defs>
        <style>
            .cls-1 {
            fill: #42a557;
            }

            .cls-2 {
            fill: #e6493d;
            }

            .cls-3 {
            fill: #4c89f2;
            }

            .cls-4 {
            fill: #f9bd1a;
            }

            .cls-5 {
            fill: #b4b4b6;
            }

            .cls-6 {
            fill: #fdfefe;
            }
        </style>
    </defs>
    <g>
        <g>
            <path class="cls-5"
                  d="M185.48,147.83l20.82-17.17c.03,15.11,1.42,29.69,4.17,43.73.98,4.98,4.26,16.14,10.75,16.27,8.4.17,11.23-16.86,12.12-23.25,2.76-19.89,3.85-40.12,3.25-60.69-.06-.11,0-.43.2-.95.14-.37.21-.78.21-1.19.08-10.77-.59-21.62-2.04-32.54-.25-4.14-1.34-10.15-3.27-18.03-1.39-5.72-3.88-9.73-7.47-12.02-.42-.27-.89-.45-1.39-.52-8.56-1.3-11.99,11.56-13.22,17.98-2.15,11.1-3.32,22.5-3.51,34.2l-21.61,17.59c-.88-23.22.34-46.05,3.66-68.47,1.62-10.9,4.88-20.43,9.77-28.6,9.84-16.42,31.95-19.73,44.54-3.66,3.72,4.74,6.52,9.94,8.4,15.59,4.92,14.72,6.61,31.1,7.45,46.63,1.02,18.81.49,42.02-.4,65.03-2.35,60.63-6.27,141.82-9.49,223.96-4.25,108.2-9.11,225.86-14.58,353-1.2,27.82-1.82,57.42-3.15,85.33-2.83,59.81-5.47,113.44-7.93,160.88-.16,3.04-.52,6.96-1.07,11.78-.02.15-.15.25-.3.24-.08,0-.15-.05-.2-.12-.09-.15-.15-.38-.17-.68-3.7-68.09-5.78-108.01-6.25-119.77-1.84-46.79-5.86-146.16-12.06-298.11-7.55-184.93-13.08-315.62-16.58-392.05-.18-3.86-.14-9.56-.66-14.38Z"/>
            <path class="cls-2"
                  d="M647.37,291.33l-31.1-6.46c6.93-38.12,3.99-78.74-11.05-114.83-15.5-37.24-40.72-66.96-75.65-89.18-34.07-21.66-71.2-33.43-111.41-35.32-55.5-2.6-106.4,11.08-152.71,41.04-.35.23-.81.13-1.04-.21-.07-.11-.11-.23-.12-.35l-2.35-30.38c-.05-.61.26-1.2.81-1.51,46.07-26.51,94.8-39.64,146.17-39.39,66.98.34,129.68,23.72,177.91,69.9,10.54,10.09,20.44,22.45,29.7,37.07,32.95,52.02,43.22,108.56,30.83,169.62Z"/>
            <path class="cls-6"
                  d="M234.97,72.03l-28.85,21.6c.19-11.7,1.36-23.1,3.51-34.2,1.23-6.42,4.67-19.28,13.22-17.98.49.07.97.25,1.39.52,3.59,2.29,6.08,6.3,7.47,12.02,1.92,7.88,3.01,13.89,3.27,18.03Z"/>
            <path class="cls-3"
                  d="M234.97,72.03c1.44,10.93,2.12,21.78,2.04,32.54,0,.41-.07.81-.21,1.19-.19.52-.25.83-.2.95l-30.3,23.95-20.82,17.17c-23.72,20-47.44,39.06-73.24,56.7-29.02,19.83-60.9,34.88-96.13,38.33-15.36,1.5-22.46-18.27-8.97-26.6,1.4-.87,4.46-1.65,9.19-2.36,10.08-1.52,18.66-3.51,25.76-5.97,30.01-10.41,58.4-29.19,83.38-48.85,20.16-15.86,39.84-31.81,59.04-47.85l21.61-17.59,28.85-21.6Z"/>
            <path class="cls-6"
                  d="M236.6,106.71c.59,20.57-.49,40.8-3.25,60.69-.89,6.39-3.72,23.42-12.12,23.25-6.49-.13-9.77-11.29-10.75-16.27-2.75-14.04-4.14-28.62-4.17-43.73l30.3-23.95Z"/>
            <path class="cls-4"
                  d="M616.27,284.86l31.1,6.46c-13.03,57.89-45.05,107.83-90.26,145.92-29.06,24.48-61.24,43.8-96.54,57.96-28.24,11.32-57.39,20.08-87.45,26.28l-5.49-30.32c13.83-2.94,30.48-7.45,49.94-13.52,40.72-12.69,77.66-31.6,110.82-56.73,15.64-11.85,30.45-26.4,44.41-43.63,19.08-23.56,32.6-50.44,40.56-80.62,1.04-3.92,2.01-7.85,2.91-11.8Z"/>
            <path class="cls-1"
                  d="M367.62,491.16l5.49,30.32-127.18,25.03c-.34.07-.67-.14-.74-.47-.01-.05-.02-.1-.01-.16l.99-29.96c.02-.57.43-1.05.99-1.16l120.46-23.62Z"/>
            <path class="cls-1"
                  d="M196.97,528.6c.34-.1.71.09.81.44.01.05.02.1.03.15l1.36,29.45c.02.52-.31.99-.79,1.15-45.27,14.78-88.91,39.12-116.67,78.78-8.11,11.58-14.14,23.98-18.09,37.2-9.99,33.42-3.34,68.79,18.39,96.5.71.9,3.5,3.8,8.39,8.7.36.36.68.76.95,1.2,10.72,17.86-10.85,32.42-25.08,18.19-16.06-16.06-26.94-35.12-32.64-57.18-15.32-59.28,7.86-118.33,53.42-157.26,31.4-26.83,70.25-45.46,109.94-57.31Z"/>
        </g>
    </g>
</svg>